<svg xmlns="http://www.w3.org/2000/svg" viewBox="0 0 100 100" role="img" aria-label="Default illustrated woman portrait">
  <rect width="100" height="100" fill="#f9e3df"/>
  <path d="M24 45C22 20 34 8 51 8c18 0 29 14 27 39l-8 23H31Z" fill="#623f39"/>
  <circle cx="50" cy="40" r="23" fill="#e2a27e"/>
  <path d="M27 34C31 15 43 10 53 11c12 1 20 10 22 25-9-7-16-11-24-13-7 5-15 9-24 11Z" fill="#623f39"/>
  <circle cx="42" cy="41" r="2" fill="#292729"/>
  <circle cx="59" cy="41" r="2" fill="#292729"/>
  <path d="M43 52c5 4 10 4 15 0" fill="none" stroke="#a74f54" stroke-linecap="round" stroke-width="2"/>
  <path d="M14 100c3-24 16-37 36-37s34 13 37 37Z" fill="#e85d4a"/>
</svg>
